<svg width="16" height="16" viewBox="0 0 16 16" fill="none" xmlns="http://www.w3.org/2000/svg">
<path fill-rule="evenodd" clip-rule="evenodd" d="M1.62288 9.93365C1.83116 9.72537 2.16885 9.72537 2.37713 9.93365L4.64088 12.1974L6.90462 9.93365C7.1129 9.72537 7.45059 9.72537 7.65887 9.93365C7.86715 10.1419 7.86715 10.4796 7.65887 10.6879L5.018 13.3288C4.80972 13.537 4.47203 13.537 4.26375 13.3288L1.62288 10.6879C1.4146 10.4796 1.4146 10.1419 1.62288 9.93365Z" fill="#4D4D4D"/>
<path fill-rule="evenodd" clip-rule="evenodd" d="M4.64083 2.51505C4.93538 2.51505 5.17416 2.75383 5.17416 3.04838L5.17416 12.9516C5.17416 13.2462 4.93538 13.485 4.64083 13.485C4.34628 13.485 4.1075 13.2462 4.1075 12.9516L4.1075 3.04838C4.1075 2.75383 4.34628 2.51505 4.64083 2.51505Z" fill="#4D4D4D"/>
<path fill-rule="evenodd" clip-rule="evenodd" d="M14.3771 6.06636C14.1688 6.27464 13.8311 6.27464 13.6229 6.06636L11.3591 3.80261L9.09538 6.06636C8.8871 6.27464 8.54941 6.27464 8.34113 6.06636C8.13285 5.85808 8.13285 5.52039 8.34113 5.31211L10.982 2.67124C11.1903 2.46296 11.528 2.46296 11.7362 2.67124L14.3771 5.31211C14.5854 5.52039 14.5854 5.85808 14.3771 6.06636Z" fill="#4D4D4D"/>
<path fill-rule="evenodd" clip-rule="evenodd" d="M11.3592 13.485C11.0646 13.485 10.8258 13.2462 10.8258 12.9516L10.8258 3.04837C10.8258 2.75382 11.0646 2.51504 11.3592 2.51504C11.6537 2.51504 11.8925 2.75382 11.8925 3.04837L11.8925 12.9516C11.8925 13.2462 11.6537 13.485 11.3592 13.485Z" fill="#4D4D4D"/>
</svg>
